<svg xmlns="http://www.w3.org/2000/svg" xmlns:xlink="http://www.w3.org/1999/xlink" viewBox="0 0 483.95 524.8"><defs><style>.cls-1{fill:none;}.cls-2{clip-path:url(#clip-path);}.cls-3{fill:#e87200;}.cls-4{fill:#005087;}</style><clipPath id="clip-path" transform="translate(0 0)"><rect class="cls-1" width="483.95" height="524.8"/></clipPath></defs><g id="Capa_2" data-name="Capa 2"><g id="Capa_1-2" data-name="Capa 1"><g id="Ilustración_1" data-name="Ilustración 1"><g class="cls-2"><g class="cls-2"><path class="cls-3" d="M65.32,284.44c7.26,3,11,12.64,8.59,18.28a.28.28,0,0,1-.54-.08c-.71-4.65-9.77-11.9-14.49-11.76-4.73-.14-13.79,7.11-14.5,11.76a.28.28,0,0,1-.54.08c-2.38-5.64,1.33-15.28,8.59-18.28-6.47,1.56-14.65-2.1-16-6.08a.28.28,0,0,1,.28-.36c7.9.08,14.95-2.2,17.33,0-.68-3,3-9.34,4.56-15a.28.28,0,0,1,.55,0c1.56,5.67,5.24,12,4.56,15,2.38-2.19,9.43.09,17.33,0a.28.28,0,0,1,.28.36c-1.35,4-9.53,7.64-16,6.08" transform="translate(0 0)"/><path class="cls-3" d="M431.52,284.44c7.74,3.2,11.44,13.92,8.05,19.32.85-4.48-9.37-13-14.49-12.88-5.13-.15-15.35,8.4-14.5,12.88-3.38-5.4.32-16.12,8.06-19.32-6.48,1.56-14.66-2.1-16-6.08a.28.28,0,0,1,.28-.36c7.9.08,14.95-2.2,17.34,0-.73-3.22,3.48-10.17,4.83-16.1,1.34,5.93,5.55,12.88,4.83,16.1,2.42-2.23,9.66.17,17.72,0-.95,4.13-9.44,8.06-16.11,6.45" transform="translate(0 0)"/><path class="cls-4" d="M253.8,137.71c.45.69.92,1.4,1.39,2.16s1,1.63,1.61,2.59c70.89,7.43,126.33,67.54,126.33,140.37C383.13,360.66,319.81,424,242,424S100.82,360.66,100.82,282.83c0-73.85,57-134.59,129.33-140.62-1-1.41-1.9-2.83-2.8-4.28-73.46,7.36-131,69.53-131,144.9,0,80.3,65.33,145.63,145.64,145.63s145.63-65.33,145.63-145.63c0-76.33-59-139.08-133.81-145.12" transform="translate(0 0)"/><path class="cls-4" d="M80.12,256.57l-11-3L72,243.28l6,1.68a20,20,0,0,0,2.73-6c1-3.54.08-6.35-2.61-7.1-3.74-1-5,1.85-8.43,7.91-4.13,7.19-8.81,11.83-17.08,9.52-9.06-2.53-12.92-10.74-9.53-22.88a40.15,40.15,0,0,1,7.37-14.78l10.57,2.95-2.84,10.17-5.31-1.48a17.44,17.44,0,0,0-2.27,5.09c-1.08,3.87-.18,6.46,2.51,7.21,3.28.91,4.56-1.91,7.86-7.64,3.87-6.77,8.54-12.61,17.39-10.14,9.06,2.53,13.31,9.86,9.65,23a42.52,42.52,0,0,1-7.95,15.82" transform="translate(0 0)"/><path class="cls-4" d="M89.81,212.11,91,210c.59-1.07.33-1.6-1.4-2.55l-23.2-12.79c-1.67-.92-2.25-.85-2.84.22L62.37,197l-6.09-3.36,10.78-19.56,6.09,3.35L72,179.51c-.59,1.07-.37,1.66,1.3,2.58l23.2,12.79c1.73,1,2.35.83,2.94-.25l1.15-2.09,6.08,3.36L95.89,215.46Z" transform="translate(0 0)"/><path class="cls-4" d="M115.68,151c5.37-3.38,9.69-2.34,14.57,1.73,1.74,1.42,2.75,1.53,3.91.28l.65-.69L139.9,157l-7.23,7.79c-3.85,4.14-9.52,1.85-14.54-2.07-3.32-2.62-5.87-3.78-8.84-.59l-1.67,1.8,7,6.49c1.4,1.3,2.08,1.37,2.91.47l1.62-1.74,5.09,4.72-15.06,16.23-5.09-4.73,1.62-1.75c.83-.9.71-1.57-.69-2.86l-19.41-18c-1.35-1.25-2-1.32-2.86-.42l-1.62,1.74L76,159.33l17.62-19c7.37-7.94,14-9.68,20.55-3.61,4.29,4,4.56,8.71,1.49,14.22m-12.35,9,1.85-2c3.62-3.9,3.71-6.69,0-10.12-3.5-3.25-6.09-3.06-9.29.39l-2.41,2.59Z" transform="translate(0 0)"/><path class="cls-4" d="M141.6,148.43l2-1.3c1-.67,1.06-1.26,0-2.91L129.13,122c-1-1.59-1.58-1.81-2.61-1.14l-2,1.3-3.79-5.82,18.73-12.19,3.79,5.83-2,1.3c-1,.67-1.11,1.29-.07,2.89l14.45,22.21c1.08,1.66,1.68,1.84,2.71,1.17l2-1.3,3.78,5.82-18.73,12.18Z" transform="translate(0 0)"/><path class="cls-4" d="M161.94,116.51c-4.5-13.58,1.62-25.43,15.58-30.06s25.18,1.28,29.74,15c4.5,13.58-1.47,25.24-15.37,29.84-14.16,4.69-25.43-1.19-29.95-14.83m31.76-8.94-.94-2.85c-3.1-9.37-7.15-12.27-12.84-10.38s-7.33,6.66-4.23,16l.94,2.84c3.11,9.38,7.09,12.08,12.84,10.17s7.32-6.51,4.23-15.82" transform="translate(0 0)"/><path class="cls-4" d="M242.5,113.7l2.35.35c1.29.18,1.69-.24,2-2.2l3.8-26.22c.28-1.89,0-2.41-1.27-2.6L247,82.69l1-6.88L270.7,79.1c16.52,2.4,22.88,10.75,20.68,26-2.13,14.69-11.18,21.09-27.7,18.7l-22.18-3.21ZM265.15,117c6.81,1,9.69-2.79,11.11-12.57l.44-3c1.43-9.91-.18-14.41-6.93-15.39l-4.51-.65-4.49,31Z" transform="translate(0 0)"/><path class="cls-4" d="M296.6,124.14l2.2.93c1.13.48,1.63.17,2.4-1.65L311.51,99c.74-1.75.61-2.32-.52-2.8l-2.2-.93,2.71-6.4,20.58,8.69-2.71,6.4-2.19-.93c-1.13-.47-1.69-.19-2.44,1.57L314.43,129c-.76,1.82-.57,2.42.56,2.9l2.19.92-2.7,6.4-20.58-8.69Z" transform="translate(0 0)"/><path class="cls-4" d="M362.52,116.1l-.94,29.61,9-11.67c1.16-1.51,1.13-2.13.16-2.88l-2.27-1.75,4.24-5.5,13.76,10.58L382.2,140l-2.32-1.78c-1-.75-1.59-.62-2.75.89l-21.88,28.45-7.61-5.85,1-36.32-12.24,15.93c-1.17,1.51-1.19,2.09-.22,2.84l2.33,1.79-4.24,5.5-13.77-10.58,4.24-5.51,2.32,1.78c1,.75,1.53.58,2.7-.93L346,115.15c1.16-1.51,1.18-2.09.21-2.84l-2.32-1.79,4.23-5.5Z" transform="translate(0 0)"/><path class="cls-4" d="M387.69,186.07l-7.22-10.41-5.21,1.46c-1.92.58-2,1.3-1.1,2.59l1,1.51-5.71,4-9.71-14,5.71-4,1.16,1.68c.89,1.29,1.44,1.24,3.49.73l37.22-9.33,7.92,11.41-22.07,31.16c-1.18,1.65-1.24,2.52-.42,3.69l1,1.4-5.71,4L375,193.13l5.71-4,1.09,1.57c.85,1.23,1.61,1.36,2.77-.19Zm-.88-12.49L392,181l8.29-11.23Z" transform="translate(0 0)"/><path class="cls-4" d="M419.92,241.43c.17,6.34-2.93,9.53-8.91,11.66-2.12.77-2.73,1.59-2.24,3.22l.27.91-6.66,2-3-10.18c-1.61-5.43,3.26-9.14,9.18-11.46,3.95-1.53,6.25-3.13,5-7.31l-.69-2.35-9.15,2.71c-1.83.54-2.23,1.09-1.88,2.26l.67,2.29-6.66,2-6.28-21.23,6.66-2,.67,2.29c.35,1.17,1,1.41,2.82.87l25.41-7.52c1.76-.53,2.17-1.07,1.82-2.25l-.68-2.29,6.66-2,7.35,24.82c3.08,10.39,1.19,17-7.36,19.51-5.62,1.67-9.81-.5-13-5.95m-1.45-15.2.78,2.61c1.5,5.09,3.87,6.6,8.7,5.17,4.57-1.36,5.73-3.69,4.39-8.2l-1-3.39Z" transform="translate(0 0)"/><path class="cls-4" d="M242.4,40.85a31.06,31.06,0,0,1-.64,17.93H242C365.52,58.77,466,159.28,466,282.83S365.52,506.88,242,506.88,17.92,406.37,17.92,282.83c0-106.69,75-196.19,175-218.63a73,73,0,0,1-1.53-18C82.16,69.52,0,166.75,0,282.83c0,133.42,108.55,242,242,242s242-108.55,242-242S375.63,41.08,242.4,40.85" transform="translate(0 0)"/><path class="cls-4" d="M57.4,324.76l.25,1c.1.39.28.5.94.33l10.29-2.55c.64-.16.75-.34.65-.73l-.25-1,2.14-.53,1.82,7.33-2.15.53-.25-1c-.1-.39-.27-.47-.91-.32l-10.29,2.56c-.66.16-.77.32-.68.71l.26,1-2.15.53-1.82-7.32Z" transform="translate(0 0)"/><path class="cls-4" d="M77,340.53l-6.89,10.41,6.62-2.44c.61-.23.71-.4.57-.77l-.43-1.16,2.08-.76,2.1,5.7-2.07.76-.43-1.15c-.14-.38-.32-.44-.93-.22l-12.84,4.74-1-2.68,8.11-12.34-8.29,3.06c-.62.23-.71.4-.57.78l.42,1.15-2.07.77-2.11-5.72,2.07-.77.42,1.15c.14.38.34.47,1,.24l10-3.68c.62-.23.7-.42.57-.8l-.43-1.15,2.07-.77Z" transform="translate(0 0)"/><path class="cls-4" d="M86.37,362.42,81,373.66l6.22-3.32c.58-.3.65-.49.46-.84l-.58-1.08,2-1,2.86,5.35-1.95,1-.58-1.08c-.19-.36-.38-.4-.95-.09L76.34,379,75,376.52l6.34-13.31-7.79,4.15c-.57.31-.64.49-.45.85l.57,1.08-1.94,1L68.85,365l1.94-1,.58,1.09c.19.35.39.41,1,.11l9.38-5c.58-.31.64-.51.45-.87l-.58-1.08,2-1Z" transform="translate(0 0)"/><path class="cls-4" d="M88.38,382.81c4.25-3.06,9.12-2.24,12.17,2s2.19,8.86-2.11,11.95-9,2.28-12.07-1.93-2.24-8.94,2-12m7,10.62.9-.64c3.15-2.28,3.69-4.37,2.13-6.52s-3.73-2.35-6.89-.08l-.89.65c-3.16,2.28-3.65,4.34-2.08,6.51s3.68,2.36,6.83.08" transform="translate(0 0)"/><path class="cls-4" d="M111.66,402.46c-.36-.39-.59-.41-.91.2l-4,8.32,8.44-3.58c.61-.3.58-.55.24-.92l-.83-.88,1.61-1.51,4.52,4.81-1.61,1.51-.77-.82c-.38-.4-.65-.43-1.28-.15l-13.64,5.41-2.15-2.28,6.26-13.28c.34-.59.33-.86,0-1.21l-.68-.73,1.61-1.51,5.44,5.8-1.61,1.51Z" transform="translate(0 0)"/><path class="cls-4" d="M123.94,426.5l-4-3.39-2.21,1.3c-.57.34-.55.58-.15.92l.75.63-1.42,1.69-4.71-3.95,1.42-1.69.77.64c.42.36.63.3,1.24,0l12.8-7.13,3.13,2.63-4.89,13.76c-.21.64-.17.94.2,1.25l.61.51-1.42,1.7-5.94-5,1.42-1.69.71.59c.39.33.65.29.87-.32ZM121.76,422l3.06,2.57,2.11-5.57Z" transform="translate(0 0)"/><path class="cls-4" d="M136.5,432.66c2.85-4.43,7.35-5.62,11.3-3.08,1.85,1.2,2.75,2.82,2.41,4.72l1.87-1.54,2,1.28-3.47,5.37-2.93-1.89c1.17-2.55.9-4.17-.81-5.27-2.24-1.44-4.25-.58-6.25,2.52l-.44.69c-2.08,3.23-1.89,5.38.32,6.81,2,1.26,3.84,1,5.48-1.09l2.32,2.05c-2,2.69-5.36,3.87-9.45,1.23-4.36-2.82-5.32-7.16-2.33-11.8" transform="translate(0 0)"/><path class="cls-4" d="M153.8,450.27l.94.47c.36.18.56.11.87-.49l4.78-9.49c.29-.58.22-.78-.13-1l-.95-.48,1-2,6.75,3.4-1,2-.94-.47c-.36-.18-.54-.11-.83.48l-4.78,9.48c-.3.61-.26.8.1,1l.94.48-1,2-6.75-3.4Z" transform="translate(0 0)"/><path class="cls-4" d="M170.05,451.45c1.84-4.92,6.34-6.93,11.23-5.11s6.74,6.16,4.88,11.12-6.25,6.92-11.12,5.1-6.82-6.19-5-11.11m11.71,5,.39-1c1.36-3.65.64-5.69-1.85-6.62s-4.41.13-5.77,3.77l-.39,1c-1.36,3.64-.63,5.63,1.89,6.57s4.37-.08,5.73-3.73m1.36-13.7,3.48,1.3-.52,1.39-4.71.36-1.53-.57Z" transform="translate(0 0)"/><path class="cls-4" d="M201,452.76l5,11.43,1.54-6.87c.15-.64.06-.82-.33-.9l-1.2-.27.48-2.16,5.92,1.33-.48,2.16-1.2-.27c-.39-.09-.55,0-.69.67l-3,13.34-2.79-.63-5.94-13.5-1.93,8.62c-.15.64-.06.81.33.9l1.2.27-.48,2.15-6-1.33.49-2.16,1.19.27c.4.09.58,0,.72-.66l2.33-10.38c.14-.64,0-.82-.36-.91l-1.2-.26.48-2.16Z" transform="translate(0 0)"/><path class="cls-4" d="M234.41,471.94l1.23,0c.4,0,.53-.14.55-.82l.07-3.93L232,460.42c-.37-.55-.56-.78-1-.79l-.78,0,0-2.21,8,.16-.05,2.21-.95,0c-.5,0-.56.44-.29.92l2.38,4,2.54-4c.23-.4,0-.78-.36-.79l-1.31,0,0-2.21,6.7.13,0,2.21-1,0c-.53,0-.76.21-1.12.75l-4.26,6.39-.09,4.17c0,.67.14.83.54.84l1.23,0,0,2.2-7.73-.15Z" transform="translate(0 0)"/><path class="cls-4" d="M267.26,470.56l1.06-.19c.4-.07.49-.24.37-.91L266.81,459c-.12-.64-.27-.76-.66-.69l-1.07.19-.39-2.18,7.81-1.4c5.95-1.08,9.19,1.22,10.18,6.68.95,5.26-1.42,8.67-7.42,9.75l-7.61,1.37Zm7.85-1.42c3.12-.56,3.73-2.38,3.05-6.16l-.2-1.11c-.7-3.87-1.89-5.35-4.95-4.79l-2.05.37,2.18,12.05Z" transform="translate(0 0)"/><path class="cls-4" d="M291.73,465.56l1-.32c.38-.12.45-.31.26-.93l-3.2-10.14c-.2-.63-.36-.73-.75-.61l-1,.32-.66-2.1,13.4-4.23,1.35,4.26-2.21.69-.76-1.17c-.51-.69-.92-.66-2-.31l-3.42,1.08,1.48,4.71,2-.63c.6-.19.73-.44.51-1.13l-.23-.72,2-.62,1.69,5.39-2,.61-.23-.74c-.21-.67-.49-.89-1.09-.71l-2,.63,1.54,4.88,3.69-1.16c1.12-.35,1.44-.51,1.47-1.41l-.05-1.41,2.18-.68,1.34,4.26-13.64,4.3Z" transform="translate(0 0)"/><path class="cls-4" d="M313.88,459.28l-1.65-3.69,3-1.37,1.05,2.34a8.69,8.69,0,0,0,2.83-.8c1.4-.63,2.1-1.69,1.57-2.88-.65-1.45-1.88-1.19-4.52-.7-3.1.57-5.42.32-6.66-2.45-1.41-3.14,0-6.06,4-7.87a14.12,14.12,0,0,1,5.61-1.28l1.68,3.73-3,1.36-1-2.25a9.32,9.32,0,0,0-2.23.68c-1.67.75-2.3,1.8-1.75,3s1.66,1.13,4.26.62c2.88-.52,5.61-.68,7,2.34s.18,6-4,7.9a14.17,14.17,0,0,1-6.21,1.31" transform="translate(0 0)"/><path class="cls-4" d="M339.93,440.92l-4.51,2.74.53,2.5c.13.65.37.71.82.44l.84-.51,1.15,1.88-5.26,3.2-1.14-1.89.85-.52c.47-.29.49-.5.37-1.19l-2.65-14.4,3.49-2.13,11.46,9c.54.41.84.46,1.25.22l.68-.42,1.15,1.88-6.62,4-1.15-1.89.79-.49c.43-.26.48-.52,0-.92Zm-5,.6,3.41-2.07-4.6-3.79Z" transform="translate(0 0)"/><path class="cls-4" d="M359.38,423.67c2.13-.91,3.72-.26,5.3,1.43.72.78,1.14.86,1.73.39l.33-.27,1.39,1.72L365.54,429c-1.6,1.29-3.4.33-5-1.36-1.23-1.37-2.23-2-3.66-.83l-1.1.88,2.58,3.21c.39.49.64.55.93.31l.84-.67,1.39,1.72-5.85,4.7-1.38-1.72.84-.67c.31-.26.28-.49-.11-1l-6.65-8.27c-.38-.47-.61-.55-.92-.3l-.84.68L345.21,424l6.94-5.59c3.09-2.48,5.5-2.65,7.51-.14,1.4,1.74,1.3,3.49-.28,5.41m-4.8,2.57,1.12-.9c1.66-1.34,1.91-2.47.63-4s-2.27-1.55-3.76-.36L351.2,422Z" transform="translate(0 0)"/><path class="cls-4" d="M376.22,407.71c2-1.17,3.66-.72,5.45.75.81.68,1.23.71,1.76.16l.29-.3,1.59,1.53-2.3,2.38c-1.43,1.48-3.34.76-5.16-.72-1.38-1.2-2.46-1.68-3.73-.36l-1,1,3,2.86c.45.43.7.46,1,.19l.75-.77L379.4,416l-5.2,5.4-1.59-1.54.75-.77c.28-.29.22-.52-.23-1l-7.64-7.37c-.43-.41-.66-.46-.94-.17l-.75.77-1.59-1.53,6.19-6.41c2.75-2.85,5.12-3.32,7.43-1.09,1.6,1.55,1.72,3.31.39,5.41m-4.43,3.14,1-1c1.49-1.53,1.59-2.68.13-4.1s-2.46-1.25-3.78.12l-1.22,1.27Z" transform="translate(0 0)"/><path class="cls-4" d="M383.84,398.82c-4.21-3.13-4.89-8-1.77-12.21s7.79-4.74,12-1.58,4.89,7.93,1.79,12.1-7.85,4.82-12.06,1.69m8-9.86-.89-.66c-3.12-2.32-5.27-2.2-6.86-.07s-1.12,4.27,2,6.6l.89.65c3.12,2.33,5.23,2.18,6.84,0s1.14-4.22-2-6.55" transform="translate(0 0)"/><path class="cls-4" d="M403.34,381.8l.54-.94c.19-.35.13-.53-.46-.87l-9.24-5.24c-.56-.32-.76-.29-.95.06l-.54.94-1.92-1.09,3.82-6.72,1.92,1.09-.61,1.07c-.2.35-.13.53.44.85l10,5.65,1.17-2.05c.63-1.11.71-1.5.14-2.08l-1.94-1.77,1.23-2.16,4.93,2.8-6.56,11.55Z" transform="translate(0 0)"/><path class="cls-4" d="M413.46,363.09l.42-1c.16-.37.07-.54-.56-.81l-9.76-4.17c-.6-.25-.79-.2-.94.17l-.43,1-2-.87,3-7.11,2,.87-.48,1.13c-.16.37-.07.54.53.8l10.53,4.49.93-2.17c.5-1.18.53-1.57-.1-2.09l-2.12-1.53,1-2.29,5.22,2.23L415.49,364Z" transform="translate(0 0)"/><path class="cls-4" d="M415.63,341.62c-5-1.45-7.39-5.79-5.95-10.81s5.62-7.18,10.71-5.71,7.37,5.7,5.94,10.69-5.65,7.28-10.7,5.83m4.05-12.05-1.06-.31c-3.74-1.08-5.71-.21-6.45,2.35s.46,4.39,4.2,5.47l1.06.3c3.74,1.08,5.66.2,6.41-2.39s-.42-4.35-4.16-5.42" transform="translate(0 0)"/><path class="cls-3" d="M268.21,292.48C312.54,284.55,347.09,267,364.8,233a.57.57,0,0,0-.81-.74c-29.84,19.26-50.44,7.19-72.29,5.2-.42,0-.84-.09-1.26-.11a.56.56,0,0,0-.59.62c3.46,39.67-51,63.69-110.54,83.73l-4.3,1.44a.53.53,0,0,0-.29.22c-.81,1.19-1.61,2.38-2.4,3.59h0a188.18,188.18,0,0,1-11.49,16.24c-1.1,1.35-2.25,2.67-3.47,4v0c-5.08,4.9-10.78,5.13-13.69-.52-4-7.77.25-17,22.48-24.21,4.07-1.33,8.1-2.66,12.06-4,63.64-21.42,112.3-44.75,108.1-81.23a47.94,47.94,0,0,0-3.92-13.84c-3.25-7.4-9.26-14.21-14.95-18.66a.57.57,0,0,0-.81.12c-1.89,2.63-3.88,5.16-5.95,7.56-.21.25-.46.54-.72.82l-.28.32-.31.34c.23.74.45,1.47.65,2.21-.18-.62-.37-1.24-.56-1.86,0-.11-.08-.23-.11-.34l-.12.14c-11.38,12.49-23.39,19-34.9,19-.74,0-1.49,0-2.22-.09H222c0,.28.05.55.08.83a0,0,0,0,0,0,0,32.73,32.73,0,0,0,3.31,10.78.57.57,0,0,1-.81.73c-37.1-23.82-61,15.16-104.67-13a.57.57,0,0,0-.81.74c16.72,32.11,48.43,49.51,89.22,58,1.95.41,3.95.79,5.95,1.15h0c-22.39,10.07-47.63,19.16-68.72,27.72-20.3,8.25-20.56,22.8-16.38,32.21,5.12,11.51,16.69,10.6,28.14,9.66l3.47-.28c31.9-2.82,73-12.27,80.6-42.74a.56.56,0,0,1,1.09,0c9.73,39.18,75,43.6,104.71,43.87a.57.57,0,0,0,.21-1.1c-39-16.07-33.05-58-79.24-67.94a.56.56,0,0,1,0-1.11m-6.47-68.36c-.18-1.31-.41-2.63-.7-4a.57.57,0,0,1,.84-.62,7.72,7.72,0,0,1,1.68,1.34c5.54,6.39,8.38,12.45,9,18.23h0c-1.12.34-2.24.72-3.38,1.17a53.83,53.83,0,0,0-9.83,5,.56.56,0,0,1-.8-.73,34,34,0,0,0,3.21-20.47" transform="translate(0 0)"/><path class="cls-3" d="M224.56,48.23c4.66,4.76,6.29,11,6.63,17.8a.57.57,0,0,0,1,.34c21.14-25.41-15.73-47,.91-65.43a.57.57,0,0,0-.62-.91c-24.25,8.52-45.46,31.11-33,71.73a.57.57,0,0,0,1.1-.05c2.41-10.95,10-25,10-25-1,32.74,4.56,66.38,24,94.13,11.22,16.9,31.94,43.88,17.23,54h0l-.47-1.16s0,0,0-.05l-.22-.52c-.23-.54-.45-1.1-.68-1.65-3.85-9.36-7.44-19.25-8.46-30-1.06,11.13-4.8,21.27-8.8,30.86-1.47,3.59-3,7.08-4.43,10.52-1.06,2.55-2,5.06-2.94,7.55-.32.9-.64,1.77-.91,2.65h0c-.09.27-.18.54-.27.83,0,.14-.09.28-.13.43-.16.48-.28,1-.42,1.47h0a.11.11,0,0,1,0,.07,4.41,4.41,0,0,1-1.76-.24,2.47,2.47,0,0,1-.46-.23h0a2,2,0,0,1-.38-.32,2.32,2.32,0,0,1-.59-1.52,2.44,2.44,0,0,1,0-.54,8.64,8.64,0,0,1,.63-2.55l.27-.61.16-.32c.07-.12.12-.25.21-.38a6.48,6.48,0,0,1,.93-1.24s0,0,0,0c.72-1.91,1.53-4,2.53-6.32.72-1.76,1.47-3.53,2.22-5.31.2-.48.42-1,.61-1.45l-.52.09a.45.45,0,0,1-.16,0c-.27.06-.52.11-.77.18l-.9.22-.89.25-1.69.57-.71.29c-.65.27-1.28.56-1.87.86-.28.14-.55.29-.84.45a3.85,3.85,0,0,0-.38.23,4.76,4.76,0,0,0-.57.34,8.27,8.27,0,0,0-.82.54,17.56,17.56,0,0,0-2.12,1.63,3.73,3.73,0,0,0-.43.36c-.18.16-.36.32-.54.5l-.05,0-.61.62a20.07,20.07,0,0,0-1.52,1.78l-.56.72-.61.9c-.11.18-.23.37-.36.55l-.34.59c-.18.29-.32.6-.49.88a7.09,7.09,0,0,0-.44.87c-.12.29-.27.6-.39.9a22.09,22.09,0,0,0-.92,2.4,7,7,0,0,0-.27.85c-.16.53-.28,1.07-.41,1.59s-.17,1-.25,1.41l-.06.47c0,.24,0,.47-.05.68a2.69,2.69,0,0,0,0,.4,1,1,0,0,0,0,.25,4.51,4.51,0,0,0,0,.52,4.86,4.86,0,0,0,0,.54c0,.46.07.91.12,1.34v0a0,0,0,0,0,0,0,7.48,7.48,0,0,0,.25,1.18v0a10.71,10.71,0,0,0,.38,1.13c.07.18.14.36.23.54a6.1,6.1,0,0,0,.29.57,9.11,9.11,0,0,0,1.7,2.22c.12.13.29.27.41.4s.31.26.47.37a4.06,4.06,0,0,0,.46.36,5.65,5.65,0,0,0,.51.34,9.84,9.84,0,0,0,1,.62,8.27,8.27,0,0,0,1,.5l.75.3.41.14,1.24.4a5,5,0,0,1,.55.14l.89.19.85.16.86.13c.5.07,1,.13,1.56.18a2.17,2.17,0,0,0,.36,0s0,0,0-.07c12.11,1,24.23-6.63,34.43-17.84l.7-.75a6.43,6.43,0,0,1,.68-.79c20.45-18.84,5.71-48.25-7-68.37a68.22,68.22,0,0,0-5.78-7.76c-20.65-24.42-23.48-58.87-20.73-85.74" transform="translate(0 0)"/></g></g></g></g></g></svg>