<?xml version="1.0" encoding="utf-8"?>
<!-- Svg Vector Icons : http://www.onlinewebfonts.com/icon -->
<!DOCTYPE svg PUBLIC "-//W3C//DTD SVG 1.1//EN" "http://www.w3.org/Graphics/SVG/1.1/DTD/svg11.dtd">
<svg version="1.1" xmlns="http://www.w3.org/2000/svg" xmlns:xlink="http://www.w3.org/1999/xlink" x="0px" y="0px" viewBox="0 0 1000 1000" enable-background="new 0 0 1000 1000" xml:space="preserve">
<metadata> Svg Vector Icons : http://www.onlinewebfonts.com/icon </metadata>
<g><g><g id="Close"><g><path d="M500,10C229.8,10,10,229.8,10,500c0,270.2,219.8,490,490,490c270.2,0,490-219.8,490-490C990,229.8,770.2,10,500,10z M500,900.9C278.9,900.9,99.1,721.1,99.1,500C99.1,279,278.9,99.1,500,99.1C721.1,99.1,900.9,279,900.9,500C900.9,721.1,721.1,900.9,500,900.9z M657.5,408l-62.3-62.4l-93.5,93.6l-93.5-93.6L345.8,408l93.5,93.6l-93.5,93.5l62.3,62.4l93.6-93.6l93.6,93.6l62.4-62.4L564,501.5L657.5,408z"/></g></g></g><g></g><g></g><g></g><g></g><g></g><g></g><g></g><g></g><g></g><g></g><g></g><g></g><g></g><g></g><g></g></g>
</svg>